<svg xmlns="http://www.w3.org/2000/svg" viewBox="0 0 400 300" width="406" height="306" class="illustration styles_illustrationTablet__1DWOa"><g id="_257_personal_data_outline" data-name="#257_personal_data_outline"><rect x="127.57" y="68.55" width="146.41" height="173.97" rx="7.78" fill="#2563eb"></rect><path d="M266.2,243.52H135.34a8.78,8.78,0,0,1-8.77-8.78V76.32a8.77,8.77,0,0,1,8.77-8.77H266.2A8.77,8.77,0,0,1,275,76.32V234.74A8.78,8.78,0,0,1,266.2,243.52Zm-130.86-174a6.78,6.78,0,0,0-6.77,6.77V234.74a6.78,6.78,0,0,0,6.77,6.78H266.2a6.78,6.78,0,0,0,6.77-6.78V76.32a6.78,6.78,0,0,0-6.77-6.77Z" fill="#093f68"></path><rect x="136.63" y="59.26" width="146.41" height="173.97" rx="7.78" fill="#fff"></rect><path d="M275.26,234.23H144.41a8.79,8.79,0,0,1-8.78-8.78V67a8.79,8.79,0,0,1,8.78-8.78H275.26A8.79,8.79,0,0,1,284,67V225.45A8.79,8.79,0,0,1,275.26,234.23Zm-130.85-174A6.79,6.79,0,0,0,137.63,67V225.45a6.79,6.79,0,0,0,6.78,6.78H275.26a6.79,6.79,0,0,0,6.78-6.78V67a6.79,6.79,0,0,0-6.78-6.78Z" fill="#093f68"></path><path d="M212.48,102.86a30.73,30.73,0,0,1-38.31,29.78,29.3,29.3,0,0,1-5.78-2.1,30.74,30.74,0,1,1,44.09-27.68Z" fill="#fff"></path><path d="M181.75,134.59a31.58,31.58,0,0,1-7.83-1,31.19,31.19,0,0,1-6-2.17,31.85,31.85,0,1,1,13.8,3.15Zm0-61.47a29.74,29.74,0,0,0-12.93,56.52,29.25,29.25,0,0,0,5.59,2,29.9,29.9,0,0,0,14.47.06,31.1,31.1,0,0,0,5.6-2,29.74,29.74,0,0,0-12.73-56.62Z" fill="#093f68"></path><path d="M176.48,83.52s-3-1-5.79,2.61c-2.63,3.41-2.49,8.3-2.62,12.36a42.33,42.33,0,0,1-2.25,12,9.33,9.33,0,0,0,3.48,10,15,15,0,0,0,8,2.73c2.38.19,4.68-.45,7-.18a12.45,12.45,0,0,0,12.5-6.18,8,8,0,0,0,1.19-3.41,11.76,11.76,0,0,0-.45-3.53,61.1,61.1,0,0,1-1.49-12.59,20.91,20.91,0,0,0-2.27-9.81C190.24,80.89,180.63,77.85,176.48,83.52Z" fill="#725858"></path><path d="M178.28,124.25c-.34,0-.68,0-1,0a15.82,15.82,0,0,1-8.56-2.94,10.31,10.31,0,0,1-3.82-11.08,40.63,40.63,0,0,0,2.2-11.73l0-1.17c.1-4,.22-8.43,2.8-11.77,2.38-3.09,4.95-3.24,6.17-3.09a8.52,8.52,0,0,1,7.31-2.86A14.58,14.58,0,0,1,194.7,87a21.94,21.94,0,0,1,2.39,10.28,59.48,59.48,0,0,0,1.47,12.38l.05.25a11.72,11.72,0,0,1,.42,3.58,8.89,8.89,0,0,1-1.33,3.83A13.42,13.42,0,0,1,184.23,124a18,18,0,0,0-3.43.08C180,124.17,179.14,124.25,178.28,124.25Zm-2.83-39.87c-.87,0-2.41.34-4,2.36-2.18,2.83-2.29,7-2.38,10.6l0,1.18a43,43,0,0,1-2.29,12.28,8.29,8.29,0,0,0,3.12,8.88,14,14,0,0,0,7.51,2.54,19.33,19.33,0,0,0,3.21-.11,18.77,18.77,0,0,1,3.83-.07,11.51,11.51,0,0,0,11.53-5.7,7,7,0,0,0,1.06-3,10.62,10.62,0,0,0-.38-3l0-.25a61.42,61.42,0,0,1-1.52-12.8A19.83,19.83,0,0,0,192.94,88a12.63,12.63,0,0,0-9.7-6.42,6.5,6.5,0,0,0-6,2.55,1,1,0,0,1-1.12.35A2.59,2.59,0,0,0,175.45,84.38Z" fill="#093f68"></path><path d="M194.9,125.23v5.41a30.67,30.67,0,0,1-5.77,2.06,31,31,0,0,1-7.38.89,30.51,30.51,0,0,1-7.58-1,29.3,29.3,0,0,1-5.78-2.1v-5.31a9,9,0,0,1,9-9h8.57a9,9,0,0,1,9,9Z" fill="#2563eb"></path><path d="M181.75,134.59a31.58,31.58,0,0,1-7.83-1,31.19,31.19,0,0,1-6-2.17,1,1,0,0,1-.56-.9v-5.31a10,10,0,0,1,10-10h8.57a10,10,0,0,1,10,10v5.41a1,1,0,0,1-.57.9,31.55,31.55,0,0,1-13.58,3.05Zm-12.36-4.68a29.94,29.94,0,0,0,19.49,1.82,30.37,30.37,0,0,0,5-1.73v-4.77a7.95,7.95,0,0,0-8-8h-8.57a8,8,0,0,0-8,8Zm25.51.73h0Z" fill="#093f68"></path><polygon points="181.64 129.19 180.04 117.01 184.14 117.01 181.64 129.19" fill="#093f68"></polygon><path d="M181.64,130.19h0a1,1,0,0,1-1-.87l-1.6-12.18a1,1,0,0,1,.24-.79A1,1,0,0,1,180,116h4.1a1,1,0,0,1,1,1.2l-2.5,12.18A1,1,0,0,1,181.64,130.19ZM181.18,118l.68,5.16,1-5.16Z" fill="#093f68"></path><path d="M174.17,133.64a1,1,0,0,1-1-1V126a1,1,0,1,1,2,0v6.66A1,1,0,0,1,174.17,133.64Z" fill="#093f68"></path><path d="M189.12,133.7a1,1,0,0,1-1-1V126a1,1,0,0,1,2,0v6.72A1,1,0,0,1,189.12,133.7Z" fill="#093f68"></path><path d="M180,115h4.1a0,0,0,0,1,0,0v2.36a1.74,1.74,0,0,1-1.74,1.74h-.62a1.74,1.74,0,0,1-1.74-1.74V115A0,0,0,0,1,180,115Z" fill="#ffc9b0"></path><path d="M182.4,120.06h-.62a2.74,2.74,0,0,1-2.74-2.74V115a1,1,0,0,1,1-1h4.1a1,1,0,0,1,1,1v2.36A2.74,2.74,0,0,1,182.4,120.06ZM181,116v1.36a.74.74,0,0,0,.74.74h.62a.74.74,0,0,0,.74-.74V116Z" fill="#093f68"></path><ellipse cx="170.36" cy="104.3" rx="3.99" ry="3.43" fill="#ffc9b0"></ellipse><path d="M170.36,108.74a4.47,4.47,0,1,1,5-4.44A4.73,4.73,0,0,1,170.36,108.74Zm0-6.87a2.49,2.49,0,1,0,3,2.43A2.75,2.75,0,0,0,170.36,101.87Z" fill="#093f68"></path><ellipse cx="193.6" cy="104.3" rx="3.99" ry="3.43" fill="#ffc9b0"></ellipse><path d="M193.6,108.74a4.47,4.47,0,1,1,5-4.44A4.73,4.73,0,0,1,193.6,108.74Zm0-6.87a2.49,2.49,0,1,0,3,2.43A2.75,2.75,0,0,0,193.6,101.87Z" fill="#093f68"></path><path d="M189.4,94.11l-3.89-5-1.41,5-6.13,0-1.45-4.46-1.7,4.45h-4.75v9.42a12,12,0,0,0,12,12h0a12,12,0,0,0,12-12V94.13Z" fill="#ffc9b0"></path><path d="M182.09,116.5a13,13,0,0,1-13-13V94.06a1,1,0,0,1,1-1h4.06l1.46-3.81a1,1,0,0,1,1-.64,1,1,0,0,1,.92.69l1.23,3.77,4.64,0c.53-1.88,1.21-4.26,1.21-4.26a1,1,0,0,1,1.75-.34l3.59,4.62h4.22a1,1,0,0,1,1,1v9.35A13,13,0,0,1,182.09,116.5Zm-11-21.44v8.42a11,11,0,0,0,22,0V95.12H189.4a1,1,0,0,1-.79-.38l-2.68-3.44c-.28,1-.61,2.17-.87,3.08a1,1,0,0,1-1,.73h0l-6.14,0a1,1,0,0,1-.94-.69l-.58-1.77-.68,1.81a1,1,0,0,1-.94.64h-3.75Z" fill="#093f68"></path><path d="M182,106.47a8.33,8.33,0,0,1-1.2-.1,1,1,0,0,1,.35-2,6.82,6.82,0,0,0,.77.07,12.67,12.67,0,0,0-.75-1.74,1,1,0,0,1,1.78-.93c1.44,2.77,1.07,3.58,1,3.85a1.23,1.23,0,0,1-.84.7A4.26,4.26,0,0,1,182,106.47Z" fill="#093f68"></path><path d="M266.88,88.21H228.37a2,2,0,0,1,0-4h38.51a2,2,0,0,1,0,4Z" fill="#dfeaef"></path><path d="M266.88,100H228.37a2,2,0,0,1,0-4h38.51a2,2,0,0,1,0,4Z" fill="#dfeaef"></path><path d="M266.88,111.79H228.37a2,2,0,0,1,0-4h38.51a2,2,0,0,1,0,4Z" fill="#dfeaef"></path><path d="M252.65,123.58H228.37a2,2,0,0,1,0-4h24.28a2,2,0,0,1,0,4Z" fill="#dfeaef"></path><path d="M266.88,147.25H154.53a1,1,0,1,1,0-2H266.88a1,1,0,0,1,0,2Z" fill="#dfeaef"></path><path d="M266.88,161.82H174.17a1,1,0,0,1,0-2h92.71a1,1,0,0,1,0,2Z" fill="#dfeaef"></path><path d="M266.88,176.39H215.24a1,1,0,0,1,0-2h51.64a1,1,0,0,1,0,2Z" fill="#dfeaef"></path><path d="M204.06,176.39H154.53a1,1,0,1,1,0-2h49.53a1,1,0,0,1,0,2Z" fill="#dfeaef"></path><path d="M266.88,191H240.51a1,1,0,0,1,0-2h26.37a1,1,0,0,1,0,2Z" fill="#dfeaef"></path><path d="M228.37,191H194.9a1,1,0,0,1,0-2h33.47a1,1,0,0,1,0,2Z" fill="#dfeaef"></path><path d="M179.3,191H154.53a1,1,0,0,1,0-2H179.3a1,1,0,0,1,0,2Z" fill="#dfeaef"></path><path d="M266.88,217.79H238.79a2,2,0,0,1,0-4h28.09a2,2,0,0,1,0,4Z" fill="#dfeaef"></path><path d="M204.06,220.87H154.53a1,1,0,0,1-1-1V204a1,1,0,0,1,1-1h49.53a1,1,0,0,1,1,1v15.86A1,1,0,0,1,204.06,220.87Zm-48.53-2h47.53V205H155.53Z" fill="#dfeaef"></path><path d="M170.36,220.87a1,1,0,0,1-1-1V204a1,1,0,0,1,2,0v15.86A1,1,0,0,1,170.36,220.87Z" fill="#dfeaef"></path><path d="M245.35,71.83a4.75,4.75,0,0,1-4.49-4.75V63.74a1,1,0,0,1,2,0v3.34a2.78,2.78,0,0,0,2.49,2.75c2,0,3.28-1.06,3.28-2.75V56.53a3.34,3.34,0,0,0-6.57,0v1.88a1,1,0,1,1-2,0V56.53a5.32,5.32,0,0,1,10.57,0V67.08C250.63,69.87,248.46,71.83,245.35,71.83Z" fill="#093f68"></path></g></svg>